<svg width="132" height="19" viewBox="0 0 132 19" fill="none" xmlns="http://www.w3.org/2000/svg">
<path d="M9.76562 9.1875V12.1172H3.60156V18H0.34375V2.29688H11.0547V5.22656H3.60156V9.1875H9.76562ZM19.8906 5.85938C21.0469 5.85938 22.0391 6.10938 22.8672 6.60938C23.7109 7.10938 24.3516 7.80469 24.7891 8.69531C25.2422 9.57031 25.4688 10.5859 25.4688 11.7422V13.0078H16.8906C17.0469 13.8047 17.4375 14.4453 18.0625 14.9297C18.6875 15.4141 19.4531 15.6562 20.3594 15.6562C21.2188 15.6562 22 15.4844 22.7031 15.1406C23.4062 14.7969 23.9688 14.4453 24.3906 14.0859L24.3672 16.8516C23.9922 17.1797 23.4297 17.5156 22.6797 17.8594C21.9453 18.1875 21.1328 18.3516 20.2422 18.3516C19.0703 18.3516 18 18.0859 17.0312 17.5547C16.0781 17.0234 15.3125 16.2969 14.7344 15.375C14.1719 14.4531 13.8906 13.3984 13.8906 12.2109C13.8906 11.0547 14.1484 10 14.6641 9.04688C15.1797 8.09375 15.8906 7.32812 16.7969 6.75C17.7031 6.15625 18.7344 5.85938 19.8906 5.85938ZM19.8203 8.46094C19.0859 8.46094 18.4688 8.6875 17.9688 9.14062C17.4688 9.59375 17.125 10.2031 16.9375 10.9688H22.6094C22.5469 10.125 22.2344 9.5 21.6719 9.09375C21.1094 8.67188 20.4922 8.46094 19.8203 8.46094ZM32.875 5.85938C33.5156 5.85938 34.1641 6.00781 34.8203 6.30469C35.4766 6.60156 36.0234 7 36.4609 7.5V6.16406H39.4375V18H36.4609V16.0078C36.1172 16.6484 35.6172 17.2031 34.9609 17.6719C34.3047 18.125 33.5391 18.3516 32.6641 18.3516C31.7109 18.3516 30.8281 18.1094 30.0156 17.625C29.2188 17.1406 28.5781 16.4375 28.0938 15.5156C27.6094 14.5938 27.3672 13.4766 27.3672 12.1641C27.3672 10.8516 27.6094 9.72656 28.0938 8.78906C28.5938 7.85156 29.2578 7.13281 30.0859 6.63281C30.9297 6.11719 31.8594 5.85938 32.875 5.85938ZM33.4844 8.76562C32.8594 8.76562 32.3203 8.92969 31.8672 9.25781C31.4297 9.57031 31.0859 9.98438 30.8359 10.5C30.5859 11.0156 30.4609 11.5703 30.4609 12.1641C30.4609 13.0547 30.7266 13.8125 31.2578 14.4375C31.8047 15.0625 32.5234 15.375 33.4141 15.375C33.9453 15.375 34.4375 15.2344 34.8906 14.9531C35.3594 14.6719 35.7344 14.2812 36.0156 13.7812C36.3125 13.2656 36.4609 12.6484 36.4609 11.9297V10.2422C36.0391 9.78906 35.5781 9.42969 35.0781 9.16406C34.5938 8.89844 34.0625 8.76562 33.4844 8.76562ZM47.3828 2.71875V6.16406H50.6641V8.64844H47.3828V13.7578C47.3828 14.2891 47.5 14.7109 47.7344 15.0234C47.9844 15.3203 48.3516 15.4688 48.8359 15.4688C49.2578 15.4688 49.6172 15.4219 49.9141 15.3281C50.2266 15.2344 50.5156 15.1016 50.7812 14.9297V17.2969C50.4844 17.5938 50.1094 17.8438 49.6562 18.0469C49.2188 18.25 48.6641 18.3516 47.9922 18.3516C46.9297 18.3516 46.0625 18.0156 45.3906 17.3438C44.7344 16.6562 44.4062 15.7188 44.4062 14.5312V8.64844H42.2734V7.125C43.0234 6.85938 43.7109 6.35938 44.3359 5.625C44.9766 4.89062 45.4844 3.92188 45.8594 2.71875H47.3828ZM64.2812 6.16406V13.2188C64.2812 14.2656 64.0469 15.1719 63.5781 15.9375C63.1094 16.6875 62.4688 17.2656 61.6562 17.6719C60.8594 18.0781 59.9531 18.2812 58.9375 18.2812C57.9062 18.2812 56.9844 18.0781 56.1719 17.6719C55.375 17.2656 54.7422 16.6875 54.2734 15.9375C53.8203 15.1719 53.5938 14.2656 53.5938 13.2188V6.16406H56.5938L56.6172 12.6797C56.6172 13.6016 56.8281 14.2891 57.25 14.7422C57.6719 15.1953 58.2344 15.4219 58.9375 15.4219C59.625 15.4219 60.1797 15.1953 60.6016 14.7422C61.0391 14.2891 61.2578 13.6016 61.2578 12.6797V6.16406H64.2812ZM75.1328 9.49219C74.6328 9.21094 74.1094 9.07031 73.5625 9.07031C72.875 9.07031 72.3047 9.29688 71.8516 9.75C71.3984 10.1875 71 10.7344 70.6562 11.3906V18H67.6797V6.16406H70.6562V8.39062C71.0625 7.6875 71.5391 7.10156 72.0859 6.63281C72.6484 6.16406 73.2812 5.92969 73.9844 5.92969C74.4062 5.92969 74.7891 6 75.1328 6.14062V9.49219ZM82.6094 5.85938C83.7656 5.85938 84.7578 6.10938 85.5859 6.60938C86.4297 7.10938 87.0703 7.80469 87.5078 8.69531C87.9609 9.57031 88.1875 10.5859 88.1875 11.7422V13.0078H79.6094C79.7656 13.8047 80.1562 14.4453 80.7812 14.9297C81.4062 15.4141 82.1719 15.6562 83.0781 15.6562C83.9375 15.6562 84.7188 15.4844 85.4219 15.1406C86.125 14.7969 86.6875 14.4453 87.1094 14.0859L87.0859 16.8516C86.7109 17.1797 86.1484 17.5156 85.3984 17.8594C84.6641 18.1875 83.8516 18.3516 82.9609 18.3516C81.7891 18.3516 80.7188 18.0859 79.75 17.5547C78.7969 17.0234 78.0312 16.2969 77.4531 15.375C76.8906 14.4531 76.6094 13.3984 76.6094 12.2109C76.6094 11.0547 76.8672 10 77.3828 9.04688C77.8984 8.09375 78.6094 7.32812 79.5156 6.75C80.4219 6.15625 81.4531 5.85938 82.6094 5.85938ZM82.5391 8.46094C81.8047 8.46094 81.1875 8.6875 80.6875 9.14062C80.1875 9.59375 79.8438 10.2031 79.6562 10.9688H85.3281C85.2656 10.125 84.9531 9.5 84.3906 9.09375C83.8281 8.67188 83.2109 8.46094 82.5391 8.46094ZM102.156 1.125V18H99.1797V16.0078C98.8359 16.6484 98.3359 17.2031 97.6797 17.6719C97.0234 18.125 96.2578 18.3516 95.3828 18.3516C94.4297 18.3516 93.5469 18.1094 92.7344 17.625C91.9375 17.1406 91.2969 16.4375 90.8125 15.5156C90.3281 14.5938 90.0859 13.4766 90.0859 12.1641C90.0859 10.8516 90.3281 9.72656 90.8125 8.78906C91.3125 7.85156 91.9766 7.13281 92.8047 6.63281C93.6484 6.11719 94.5781 5.85938 95.5938 5.85938C96.2344 5.85938 96.8828 6.00781 97.5391 6.30469C98.1953 6.60156 98.7422 7 99.1797 7.5V1.125H102.156ZM96.2031 8.78906C95.5781 8.78906 95.0391 8.95312 94.5859 9.28125C94.1484 9.59375 93.8047 10.0078 93.5547 10.5234C93.3047 11.0234 93.1797 11.5703 93.1797 12.1641C93.1797 13.0547 93.4453 13.8125 93.9766 14.4375C94.5234 15.0625 95.2422 15.375 96.1328 15.375C96.6641 15.375 97.1562 15.2344 97.6094 14.9531C98.0781 14.6719 98.4531 14.2812 98.7344 13.7812C99.0312 13.2656 99.1797 12.6484 99.1797 11.9297V10.2422C98.7578 9.78906 98.2969 9.4375 97.7969 9.1875C97.3125 8.92188 96.7812 8.78906 96.2031 8.78906ZM115.328 0C115.891 0 116.375 0.203125 116.781 0.609375C117.188 1 117.391 1.46875 117.391 2.01562C117.391 2.54688 117.188 3.01562 116.781 3.42188C116.375 3.82812 115.891 4.03125 115.328 4.03125C114.766 4.03125 114.281 3.82812 113.875 3.42188C113.484 3.01562 113.289 2.54688 113.289 2.01562C113.289 1.46875 113.484 1 113.875 0.609375C114.281 0.203125 114.766 0 115.328 0ZM117.062 6.16406V18H114.086V8.69531H112.188V6.16406H117.062ZM123.789 6.16406V7.85156C124.148 7.36719 124.633 6.91406 125.242 6.49219C125.867 6.07031 126.578 5.85938 127.375 5.85938C128.578 5.85938 129.586 6.26562 130.398 7.07812C131.211 7.89062 131.617 9.10938 131.617 10.7344V18H128.641L128.617 11.1328C128.617 10.3359 128.422 9.74219 128.031 9.35156C127.656 8.96094 127.133 8.76562 126.461 8.76562C125.93 8.76562 125.43 8.9375 124.961 9.28125C124.508 9.625 124.117 10.0312 123.789 10.5V18H120.812V6.16406H123.789Z" fill="#6D6E76"/>
</svg>
